<?xml version="1.0" encoding="utf-8"?>
<!-- Generator: Adobe Illustrator 27.3.1, SVG Export Plug-In . SVG Version: 6.00 Build 0)  -->
<svg version="1.1" id="Layer_1" xmlns="http://www.w3.org/2000/svg" xmlns:xlink="http://www.w3.org/1999/xlink" x="0px" y="0px"
	 viewBox="0 0 241 69" style="enable-background:new 0 0 241 69;" xml:space="preserve">
<style type="text/css">
	.st0{fill:url(#SVGID_1_);}
	.st1{fill:url(#SVGID_00000024701278905566206630000017153331843705918911_);}
	.st2{fill:#ECB71E;}
	.st3{fill:url(#SVGID_00000160870696605177032970000001446146137004019389_);}
	.st4{fill:url(#SVGID_00000085241831439537517520000014065382662992840110_);}
	.st5{fill:#2F2E81;}
</style>
<g>
	<g>
		<linearGradient id="SVGID_1_" gradientUnits="userSpaceOnUse" x1="120.5" y1="53.4399" x2="135.7979" y2="53.4399">
			<stop  offset="3.805968e-03" style="stop-color:#2F2E81"/>
			<stop  offset="1" style="stop-color:#393F99"/>
		</linearGradient>
		<polygon class="st0" points="120.5,40 135.8,66.88 135.8,66.88 120.5,56.98 		"/>
		
			<linearGradient id="SVGID_00000067219152752718502950000003229321448920480906_" gradientUnits="userSpaceOnUse" x1="105.2021" y1="53.4399" x2="120.5" y2="53.4399">
			<stop  offset="3.805968e-03" style="stop-color:#2F2E81"/>
			<stop  offset="1" style="stop-color:#393F99"/>
		</linearGradient>
		<polygon style="fill:url(#SVGID_00000067219152752718502950000003229321448920480906_);" points="120.5,40 105.2,66.88 
			105.2,66.88 120.5,56.98 		"/>
		<polygon class="st2" points="120.5,46.2 88.31,31.14 88.31,31.14 120.5,33.52 		"/>
		
			<linearGradient id="SVGID_00000134957055374053974620000016071476714627945876_" gradientUnits="userSpaceOnUse" x1="84.7358" y1="31.4593" x2="120.5" y2="31.4593">
			<stop  offset="3.805968e-03" style="stop-color:#2F2E81"/>
			<stop  offset="1" style="stop-color:#393F99"/>
		</linearGradient>
		<polygon style="fill:url(#SVGID_00000134957055374053974620000016071476714627945876_);" points="120.5,46.2 84.74,16.72 
			84.74,16.72 120.5,27.58 		"/>
		<polygon class="st2" points="120.5,46.2 152.69,31.14 152.69,31.14 120.5,33.52 		"/>
		
			<linearGradient id="SVGID_00000090254013242083725460000017935487184750022562_" gradientUnits="userSpaceOnUse" x1="120.5" y1="31.4593" x2="156.2642" y2="31.4593">
			<stop  offset="3.805968e-03" style="stop-color:#2F2E81"/>
			<stop  offset="1" style="stop-color:#393F99"/>
		</linearGradient>
		<polygon style="fill:url(#SVGID_00000090254013242083725460000017935487184750022562_);" points="120.5,46.2 156.26,16.72 
			156.26,16.72 120.5,27.58 		"/>
		<circle class="st5" cx="120.6" cy="18.37" r="5.47"/>
		<polygon class="st2" points="120.5,2.12 121.5,5.19 124.72,5.19 122.11,7.08 123.11,10.15 120.5,8.26 117.89,10.15 118.89,7.08 
			116.28,5.19 119.5,5.19 		"/>
		<polygon class="st2" points="110.97,7.19 111.77,9.67 114.38,9.67 112.27,11.21 113.08,13.69 110.97,12.16 108.85,13.69 
			109.66,11.21 107.55,9.67 110.16,9.67 		"/>
		<polygon class="st2" points="130.38,7.19 131.18,9.67 133.8,9.67 131.68,11.21 132.49,13.69 130.38,12.16 128.26,13.69 
			129.07,11.21 126.96,9.67 129.57,9.67 		"/>
		<polygon class="st2" points="136.91,14.88 137.46,16.57 139.24,16.57 137.8,17.62 138.35,19.31 136.91,18.26 135.47,19.31 
			136.02,17.62 134.57,16.57 136.36,16.57 		"/>
		<polygon class="st2" points="104.09,14.88 104.64,16.57 106.43,16.57 104.98,17.62 105.53,19.31 104.09,18.26 102.65,19.31 
			103.2,17.62 101.76,16.57 103.54,16.57 		"/>
	</g>
</g>
</svg>
