<?xml version="1.0" encoding="utf-8"?>
<!-- Generator: Adobe Illustrator 27.3.1, SVG Export Plug-In . SVG Version: 6.00 Build 0)  -->
<svg version="1.1" id="Layer_1" xmlns="http://www.w3.org/2000/svg" xmlns:xlink="http://www.w3.org/1999/xlink" x="0px" y="0px"
	 viewBox="0 0 214 69" style="enable-background:new 0 0 214 69;" xml:space="preserve">
<style type="text/css">
	.st0{fill:#FFFFFF;}
	.st1{fill:#ECB71E;}
</style>
<g>
	<g>
		<polygon class="st0" points="34.3,39.8 48.3,64.5 48.3,64.5 34.3,55.4 		"/>
		<polygon class="st0" points="34.3,39.8 20.3,64.5 20.3,64.5 34.3,55.4 		"/>
		<polygon class="st1" points="34.3,45.5 4.8,31.7 4.8,31.7 34.3,33.9 		"/>
		<polygon class="st0" points="34.3,45.5 1.5,18.5 1.5,18.5 34.3,28.5 		"/>
		<polygon class="st1" points="34.3,45.5 63.8,31.7 63.8,31.7 34.3,33.9 		"/>
		<polygon class="st0" points="34.3,45.5 67.1,18.5 67.1,18.5 34.3,28.5 		"/>
		<circle class="st0" cx="34.4" cy="20" r="5"/>
		<polygon class="st1" points="34.3,5.1 35.2,7.9 38.2,7.9 35.8,9.7 36.7,12.5 34.3,10.7 31.9,12.5 32.8,9.7 30.4,7.9 33.4,7.9 		
			"/>
		<polygon class="st1" points="25.6,9.8 26.3,12 28.7,12 26.8,13.4 27.5,15.7 25.6,14.3 23.6,15.7 24.4,13.4 22.4,12 24.8,12 		"/>
		<polygon class="st1" points="43.4,9.8 44.1,12 46.5,12 44.6,13.4 45.3,15.7 43.4,14.3 41.4,15.7 42.2,13.4 40.2,12 42.6,12 		"/>
		<polygon class="st1" points="49.4,16.8 49.9,18.4 51.5,18.4 50.2,19.3 50.7,20.9 49.4,19.9 48,20.9 48.5,19.3 47.2,18.4 
			48.8,18.4 		"/>
		<polygon class="st1" points="19.3,16.8 19.8,18.4 21.4,18.4 20.1,19.3 20.6,20.9 19.3,19.9 17.9,20.9 18.4,19.3 17.1,18.4 
			18.8,18.4 		"/>
	</g>
	<rect x="77.3" y="4.5" class="st1" width="63" height="6.8"/>
	<g>
		<path class="st0" d="M105.9,20l-9.3,14l13.7,30.4h-12L89.6,45l-1.6,2.1v17.4H77.3V20h10.8v19.8L100.9,20H105.9z"/>
		<path class="st0" d="M130,20l10.3,44.5h-10.8l-2.2-9.6h-11.2l-2.4,9.6h-4.2l11-44.5H130z M117.2,50.4h9.1l-4.4-19.7L117.2,50.4z"
			/>
		<path class="st0" d="M154,20v40h15.3v4.5h-26V20H154z"/>
		<path class="st0" d="M188.4,20l10.3,44.5h-10.8l-2.2-9.6h-11.2l-2.4,9.6H168L179,20H188.4z M175.6,50.4h9.1l-4.4-19.7L175.6,50.4z
			"/>
		<path class="st0" d="M212.5,20v44.5h-10.8V20H212.5z"/>
	</g>
</g>
</svg>
