<?xml version="1.0" encoding="utf-8"?>
<!-- Generator: Adobe Illustrator 27.3.1, SVG Export Plug-In . SVG Version: 6.00 Build 0)  -->
<svg version="1.1" id="Layer_1" xmlns="http://www.w3.org/2000/svg" xmlns:xlink="http://www.w3.org/1999/xlink" x="0px" y="0px"
	 viewBox="0 0 210.4 60.3" style="enable-background:new 0 0 210.4 60.3;" xml:space="preserve">
<style type="text/css">
	.st0{fill:url(#SVGID_1_);}
	.st1{fill:url(#SVGID_00000071547644746702543170000006082452105847117216_);}
	.st2{fill:#ECB71E;}
	.st3{fill:url(#SVGID_00000145742433992929732790000016993684105726561158_);}
	.st4{fill:url(#SVGID_00000108266718750544658550000001496715263002459069_);}
	.st5{fill:#2F2E81;}
</style>
<g>
	<g>
		<linearGradient id="SVGID_1_" gradientUnits="userSpaceOnUse" x1="33.6925" y1="47.5399" x2="47.4863" y2="47.5399">
			<stop  offset="3.805968e-03" style="stop-color:#2F2E81"/>
			<stop  offset="1" style="stop-color:#393F99"/>
		</linearGradient>
		<polygon class="st0" points="33.7,35.4 47.5,59.7 47.5,59.7 33.7,50.7 		"/>
		
			<linearGradient id="SVGID_00000024688221112145202370000004201593942654507443_" gradientUnits="userSpaceOnUse" x1="19.8987" y1="47.5399" x2="33.6925" y2="47.5399">
			<stop  offset="3.805968e-03" style="stop-color:#2F2E81"/>
			<stop  offset="1" style="stop-color:#393F99"/>
		</linearGradient>
		<polygon style="fill:url(#SVGID_00000024688221112145202370000004201593942654507443_);" points="33.7,35.4 19.9,59.7 19.9,59.7 
			33.7,50.7 		"/>
		<polygon class="st2" points="33.7,41 4.7,27.4 4.7,27.4 33.7,29.6 		"/>
		
			<linearGradient id="SVGID_00000089546742724682636330000015958580821367764365_" gradientUnits="userSpaceOnUse" x1="1.4447" y1="27.7206" x2="33.6925" y2="27.7206">
			<stop  offset="3.805968e-03" style="stop-color:#2F2E81"/>
			<stop  offset="1" style="stop-color:#393F99"/>
		</linearGradient>
		<polygon style="fill:url(#SVGID_00000089546742724682636330000015958580821367764365_);" points="33.7,41 1.4,14.4 1.4,14.4 
			33.7,24.2 		"/>
		<polygon class="st2" points="33.7,41 62.7,27.4 62.7,27.4 33.7,29.6 		"/>
		
			<linearGradient id="SVGID_00000096767758091419519350000004960546159375556755_" gradientUnits="userSpaceOnUse" x1="33.6925" y1="27.7206" x2="65.9402" y2="27.7206">
			<stop  offset="3.805968e-03" style="stop-color:#2F2E81"/>
			<stop  offset="1" style="stop-color:#393F99"/>
		</linearGradient>
		<polygon style="fill:url(#SVGID_00000096767758091419519350000004960546159375556755_);" points="33.7,41 65.9,14.4 65.9,14.4 
			33.7,24.2 		"/>
		<circle class="st5" cx="33.8" cy="15.9" r="4.9"/>
		<polygon class="st2" points="33.7,1.3 34.6,4 37.5,4 35.1,5.7 36,8.5 33.7,6.8 31.3,8.5 32.2,5.7 29.9,4 32.8,4 		"/>
		<polygon class="st2" points="25.1,5.8 25.8,8.1 28.2,8.1 26.3,9.5 27,11.7 25.1,10.3 23.2,11.7 23.9,9.5 22,8.1 24.4,8.1 		"/>
		<polygon class="st2" points="42.6,5.8 43.3,8.1 45.7,8.1 43.8,9.5 44.5,11.7 42.6,10.3 40.7,11.7 41.4,9.5 39.5,8.1 41.9,8.1 		
			"/>
		<polygon class="st2" points="48.5,12.8 49,14.3 50.6,14.3 49.3,15.2 49.8,16.8 48.5,15.8 47.2,16.8 47.7,15.2 46.4,14.3 48,14.3 
					"/>
		<polygon class="st2" points="18.9,12.8 19.4,14.3 21,14.3 19.7,15.2 20.2,16.8 18.9,15.8 17.6,16.8 18.1,15.2 16.8,14.3 
			18.4,14.3 		"/>
	</g>
	<rect x="76" y="0.7" class="st2" width="62" height="6.7"/>
	<g>
		<path class="st5" d="M104.1,15.9L95,29.7l13.5,29.9H96.7l-8.6-19.2l-1.5,2.1v17.1H76V15.9h10.6v19.5l12.6-19.5H104.1z"/>
		<path class="st5" d="M127.8,15.9l10.2,43.7h-10.6l-2.2-9.5h-11l-2.3,9.5h-4.1l10.8-43.7H127.8z M115.2,45.8h9l-4.3-19.4
			L115.2,45.8z"/>
		<path class="st5" d="M151.4,15.9v39.4h15v4.4h-25.6V15.9H151.4z"/>
		<path class="st5" d="M185.3,15.9l10.2,43.7h-10.6l-2.2-9.5h-11l-2.3,9.5h-4.1l10.8-43.7H185.3z M172.6,45.8h9l-4.3-19.4
			L172.6,45.8z"/>
		<path class="st5" d="M208.9,15.9v43.7h-10.6V15.9H208.9z"/>
	</g>
</g>
</svg>
