<?xml version="1.0" encoding="utf-8"?>
<!-- Generator: Adobe Illustrator 27.3.1, SVG Export Plug-In . SVG Version: 6.00 Build 0)  -->
<svg version="1.1" id="Layer_1" xmlns="http://www.w3.org/2000/svg" xmlns:xlink="http://www.w3.org/1999/xlink" x="0px" y="0px"
	 viewBox="0 0 210.4 60.3" style="enable-background:new 0 0 210.4 60.3;" xml:space="preserve">
<style type="text/css">
	.st0{fill:#FFFFFF;}
</style>
<g>
	<g>
		<polygon class="st0" points="33.3,35.4 47.1,59.8 47.1,59.8 33.3,50.9 		"/>
		<polygon class="st0" points="33.3,35.4 19.4,59.8 19.4,59.8 33.3,50.9 		"/>
		<polygon class="st0" points="33.3,41.1 4.1,27.4 4.1,27.4 33.3,29.6 		"/>
		<polygon class="st0" points="33.3,41.1 0.8,14.3 0.8,14.3 33.3,24.2 		"/>
		<polygon class="st0" points="33.3,41.1 62.5,27.4 62.5,27.4 33.3,29.6 		"/>
		<polygon class="st0" points="33.3,41.1 65.7,14.3 65.7,14.3 33.3,24.2 		"/>
		<circle class="st0" cx="33.4" cy="15.8" r="5"/>
		<polygon class="st0" points="33.3,1.1 34.2,3.9 37.1,3.9 34.7,5.6 35.6,8.4 33.3,6.7 30.9,8.4 31.8,5.6 29.4,3.9 32.4,3.9 		"/>
		<polygon class="st0" points="24.6,5.7 25.3,7.9 27.7,7.9 25.8,9.3 26.5,11.6 24.6,10.2 22.7,11.6 23.4,9.3 21.5,7.9 23.9,7.9 		
			"/>
		<polygon class="st0" points="42.2,5.7 42.9,7.9 45.3,7.9 43.4,9.3 44.1,11.6 42.2,10.2 40.3,11.6 41,9.3 39.1,7.9 41.5,7.9 		"/>
		<polygon class="st0" points="48.1,12.7 48.6,14.2 50.3,14.2 48.9,15.1 49.4,16.7 48.1,15.7 46.8,16.7 47.3,15.1 46,14.2 
			47.6,14.2 		"/>
		<polygon class="st0" points="18.4,12.7 18.9,14.2 20.5,14.2 19.2,15.1 19.7,16.7 18.4,15.7 17.1,16.7 17.6,15.1 16.3,14.2 
			17.9,14.2 		"/>
	</g>
	<rect x="75.8" y="0.5" class="st0" width="62.3" height="6.8"/>
	<g>
		<path class="st0" d="M104.1,15.8l-9.2,13.9l13.5,30.1H96.6L88,40.6l-1.5,2.1v17.2H75.8v-44h10.7v19.6l12.7-19.6H104.1z"/>
		<path class="st0" d="M127.9,15.8l10.2,44h-10.7l-2.2-9.5h-11.1l-2.3,9.5h-4.2l10.9-44H127.9z M115.2,45.9h9l-4.3-19.5L115.2,45.9z
			"/>
		<path class="st0" d="M151.7,15.8v39.6h15.1v4.4H141v-44H151.7z"/>
		<path class="st0" d="M185.7,15.8l10.2,44h-10.7l-2.2-9.5H172l-2.3,9.5h-4.2l10.9-44H185.7z M173.1,45.9h9l-4.3-19.5L173.1,45.9z"
			/>
		<path class="st0" d="M209.5,15.8v44h-10.7v-44H209.5z"/>
	</g>
</g>
</svg>
